<?xml version="1.0" encoding="UTF-8" standalone="no"?>
<svg width="600" height="600" viewBox="0 0 145.1237 145.1237" version="1.1"
   style="fill:none;stroke:#000000;stroke-width:4;stroke-linecap:round;stroke-miterlimit:10;stroke-dasharray:none"
   xmlns="http://www.w3.org/2000/svg" xmlns:svg="http://www.w3.org/2000/svg">
  <g transform="translate(-72.6237 -72.6237)">
    <path d="m 135.3837,81.450219 c 4.04414,3e-6 7.32256,3.402925 7.32256,7.600639 0,4.197714 -3.27842,7.600635 -7.32256,7.600638 l -6.87864,0.02471 c 9.33749,8.626274 15.67292,23.278854 15.67292,36.231294 0,25.01436 -20.86001,45.2925 -46.592119,45.2925 h -0.50399 c -25.731981,0 -46.591874,-20.27814 -46.591873,-45.2925 10e-7,-12.95244 6.335395,-27.60502 15.672828,-36.231294 l -6.748081,-0.02471 c -4.044141,0 -7.322566,-3.402921 -7.322566,-7.600638 0,-4.197717 3.278424,-7.600639 7.322566,-7.600639 H 122.7225 Z" />
    <path d="m 117.91193,81.414242 15.26813,-23.732096 c 0.86272,-1.443194 3.92438,-2.181352 6.08616,-0.800381 2.40595,1.536948 2.86101,4.255303 1.84902,5.848886 l -11.01291,18.750557" />
    <circle cx="105.39877" cy="56.028442" r="4.8705821" />
    <circle cx="94.903557" cy="42.975193" r="5.3718991" />
    <circle cx="89.02005" cy="67.020836" r="10" />
    <path d="m 69.834692,108.2054 c -6.991996,8.52683 -9.123702,18.33267 -8.185752,25.83628 1.023219,10.48799 6.906727,23.02243 16.115698,27.88272" />
  </g>
</svg>
